#!OML:ASF E:\motion texture\Top Level 1\Subject 1\Session 1\male.ASF
:FULLY-SPECIFIED
:DEGREES
158
root 20.7698 17.1417 5.34517 -225.458 -83.4719 245.497
lowerback 23.1222 -2.29378 4.29425
upperback 10.506 -2.92781 4.2686
thorax -1.27933 -1.83862 2.84773
lowerneck -16.9451 1.73071 -2.90105
upperneck -3.36218 2.42301 3.64196
head 1.74863 1.21241 1.85021
rclavicle 1.39149e-014 9.74045e-015
rhumerus 14.3593 28.1952 -86.7108
rradius 62.5904
rwrist 23.505
rhand -27.4236 -34.3115
rfingers 7.12502
rthumb -0.829188 -64.2897
lclavicle 1.39149e-014 9.74045e-015
lhumerus 10.092 -14.2032 103.935
lradius 57.6386
lwrist 37.4326
lhand -2.32351 28.1239
lfingers 7.12502
lthumb 23.3631 56.726
rfemur -37.1082 -3.2155 29.0663
rtibia 47.2598
rfoot -18.917 -14.3267
rtoes -3.43061
lfemur -54.155 5.39645 -11.0564
ltibia 26.1017
lfoot -4.76312 10.1826
ltoes -14.2166
159
root 20.5581 17.1191 5.33664 -227.021 -83.3809 246.764
lowerback 22.7474 -2.24104 4.33976
upperback 10.407 -2.85289 4.26521
thorax -1.20917 -1.79176 2.78293
lowerneck -16.8994 1.68984 -2.90357
upperneck -3.23869 2.37274 3.6458
head 1.78442 1.19052 1.85003
rclavicle 1.70955e-014 3.3694e-014
rhumerus 12.9928 27.9465 -87.1753
rradius 63.1851
rwrist 22.7246
rhand -27.1503 -34.3251
rfingers 7.12502
rthumb -0.565277 -64.3041
lclavicle 1.70955e-014 3.3694e-014
lhumerus 8.69997 -14.3896 103.907
lradius 58.2606
lwrist 37.8574
lhand -2.49085 27.8963
lfingers 7.12502
lthumb 23.2025 56.5187
rfemur -36.3146 -3.34635 29.1411
rtibia 47.818
rfoot -19.0754 -14.3679
rtoes -4.66032
lfemur -53.917 5.26148 -10.7586
ltibia 25.3709
lfoot -4.32889 10.3955
ltoes -13.8147
160
root 20.3451 17.0968 5.3285 -228.623 -83.3003 248.06
lowerback 22.3735 -2.18182 4.3825
upperback 10.3034 -2.76952 4.2632
thorax -1.14339 -1.74064 2.72014
lowerneck -16.8517 1.64272 -2.90768
upperneck -3.11334 2.3143 3.65569
head 1.82077 1.16477 1.8516
rclavicle 2.64384e-014 -5.64548e-014
rhumerus 11.6561 27.6722 -87.6218
rradius 63.793
rwrist 21.9052
rhand -26.856 -34.3464
rfingers 7.12502
rthumb -0.281038 -64.3259
lclavicle 2.64384e-014 -5.64548e-014
lhumerus 7.32125 -14.5953 103.876
lradius 58.9021
lwrist 38.3261
lhand -2.65995 27.6586
lfingers 7.12502
lthumb 23.0403 56.3014
rfemur -35.5392 -3.47729 29.195
rtibia 48.4094
rfoot -19.1393 -14.3992
rtoes -5.86712
lfemur -53.6729 5.11642 -10.4871
ltibia 24.7646
lfoot -3.90831 10.573
ltoes -13.3764
161
root 20.1309 17.0747 5.32076 -230.27 -83.2307 249.39
lowerback 22.0004 -2.11562 4.42095
upperback 10.1962 -2.6775 4.26274
thorax -1.08082 -1.68525 2.66041
lowerneck -16.8033 1.58877 -2.91412
upperneck -2.98675 2.24702 3.67204
head 1.85775 1.13482 1.85518
rclavicle -1.43125e-014 5.96354e-016
rhumerus 10.3521 27.3716 -88.0487
rradius 64.4139
rwrist 21.0315
rhand -26.5435 -34.3712
rfingers 7.12502
rthumb 0.0208032 -64.351
lclavicle -1.43125e-014 5.96354e-016
lhumerus 5.96278 -14.8217 103.843
lradius 59.5539
lwrist 38.8048
lhand -2.82497 27.4178
lfingers 7.12502
lthumb 22.8819 56.0802
rfemur -34.787 -3.6069 29.2284
rtibia 49.0362
rfoot -19.0996 -14.4233
rtoes -7.06637
lfemur -53.4259 4.96485 -10.2485
ltibia 24.2853
lfoot -3.50176 10.7079
ltoes -12.9114
162
root 19.9155 17.0532 5.31342 -231.962 -83.1718 250.756
lowerback 21.6299 -2.04203 4.45399
upperback 10.0866 -2.57658 4.26377
thorax -1.02092 -1.62559 2.6044
lowerneck -16.7586 1.52744 -2.92251
upperneck -2.85685 2.17007 3.69454
head 1.89688 1.10029 1.86066
rclavicle -1.66979e-014 -1.94809e-014
rhumerus 9.08443 27.0462 -88.4536
rradius 65.0463
rwrist 20.0961
rhand -26.2055 -34.404
rfingers 7.12502
rthumb 0.347315 -64.3835
lclavicle -1.66979e-014 -1.94809e-014
lhumerus 4.6303 -15.069 103.81
lradius 60.2043
lwrist 39.2592
lhand -2.99013 27.1576
lfingers 7.12502
lthumb 22.7234 55.8395
rfemur -34.0612 -3.73416 29.2427
rtibia 49.6985
rfoot -18.9496 -14.4405
rtoes -8.21104
lfemur -53.1757 4.80971 -10.0464
ltibia 23.9317
lfoot -3.11272 10.7946
ltoes -12.4269
163
root 19.6992 17.0324 5.30647 -233.714 -83.1241 252.173
lowerback 21.2616 -1.96198 4.48229
upperback 9.97456 -2.46775 4.26522
thorax -0.963689 -1.56206 2.55084
lowerneck -16.7155 1.45893 -2.93357
upperneck -2.72559 2.08377 3.72509
head 1.93711 1.06136 1.86873
rclavicle 2.57426e-014 3.01159e-014
rhumerus 7.8553 26.6961 -88.8389
rradius 65.6849
rwrist 19.0922
rhand -25.8445 -34.4531
rfingers 7.12502
rthumb 0.695939 -64.4317
lclavicle 2.57426e-014 3.01159e-014
lhumerus 3.3196 -15.3338 103.777
lradius 60.8552
lwrist 39.6722
lhand -3.13314 26.8785
lfingers 7.12502
lthumb 22.5862 55.5772
rfemur -33.366 -3.85834 29.2388
rtibia 50.3975
rfoot -18.6937 -14.4525
rtoes -9.29599
lfemur -52.9248 4.65417 -9.88544
ltibia 23.7042
lfoot -2.74332 10.8263
ltoes -11.9307
164
root 19.482 17.0125 5.2999 -235.531 -83.0878 253.647
lowerback 20.899 -1.87642 4.50514
upperback 9.8602 -2.35213 4.26626
thorax -0.910679 -1.49527 2.49973
lowerneck -16.6743 1.38351 -2.94762
upperneck -2.59321 1.98847 3.76396
head 1.97845 1.01822 1.87957
rclavicle -4.82053e-015 1.30204e-014
rhumerus 6.66611 26.3271 -89.2031
rradius 66.3277
rwrist 18.0197
rhand -25.4714 -34.5088
rfingers 7.12502
rthumb 1.05627 -64.4859
lclavicle -4.82053e-015 1.30204e-014
lhumerus 2.03762 -15.611 103.742
lradius 61.4989
lwrist 40.0409
lhand -3.26206 26.6012
lfingers 7.12502
lthumb 22.4624 55.3149
rfemur -32.704 -3.97906 29.2177
rtibia 51.1336
rfoot -18.3394 -14.4598
rtoes -10.3314
lfemur -52.6722 4.49983 -9.76774
ltibia 23.5999
lfoot -2.39695 10.8003
ltoes -11.4232
165
root 19.2641 16.9938 5.29368 -237.428 -83.0632 255.195
lowerback 20.5432 -1.78553 4.52063
upperback 9.74448 -2.23032 4.26761
thorax -0.861384 -1.42564 2.45311
lowerneck -16.6372 1.30141 -2.96636
upperneck -2.46004 1.88473 3.81203
head 2.02117 0.971189 1.89385
rclavicle 5.96354e-015 -6.36111e-015
rhumerus 5.51906 25.9421 -89.5437
rradius 66.9722
rwrist 16.8866
rhand -25.0789 -34.5823
rfingers 7.12502
rthumb 1.43533 -64.5572
lclavicle 5.96354e-015 -6.36111e-015
lhumerus 0.791458 -15.8951 103.708
lradius 62.1264
lwrist 40.3764
lhand -3.37907 26.323
lfingers 7.12502
lthumb 22.3501 55.0502
rfemur -32.0782 -4.09675 29.1807
rtibia 51.9058
rfoot -17.8868 -14.4639
rtoes -11.2901
lfemur -52.4171 4.34755 -9.69472
ltibia 23.6151
lfoot -2.07642 10.7141
ltoes -10.9092
166
root 19.0458 16.9763 5.28767 -239.466 -83.0532 256.883
lowerback 20.19 -1.69217 4.52915
upperback 9.62546 -2.1057 4.26955
thorax -0.815875 -1.35469 2.41167
lowerneck -16.6025 1.21254 -2.98934
upperneck -2.3271 1.77231 3.86942
head 2.06467 0.920147 1.91147
rclavicle -2.10215e-014 2.81902e-014
rhumerus 4.41768 25.5455 -89.8597
rradius 67.6117
rwrist 15.6972
rhand -24.6678 -34.6784
rfingers 7.12502
rthumb 1.83242 -64.6503
lclavicle -2.10215e-014 2.81902e-014
lhumerus -0.422831 -16.1829 103.674
lradius 62.7427
lwrist 40.6937
lhand -3.49106 26.0482
lfingers 7.12502
lthumb 22.2426 54.7883
rfemur -31.5019 -4.21627 29.1298
rtibia 52.716
rfoot -17.3372 -14.4648
rtoes -12.1286
lfemur -52.1718 4.19313 -9.66818
ltibia 23.7506
lfoot -1.78366 10.5642
ltoes -10.3849
167
root 18.8272 16.9602 5.28194 -241.633 -83.0541 258.695
lowerback 19.8457 -1.59551 4.53179
upperback 9.50452 -1.97689 4.27063
thorax -0.775921 -1.28182 2.37318
lowerneck -16.5695 1.11685 -3.0156
upperneck -2.19507 1.65091 3.93629
head 2.10865 0.864933 1.93225
rclavicle 1.04673e-015 8.03525e-015
rhumerus 3.36308 25.1416 -90.1514
rradius 68.2408
rwrist 14.4617
rhand -24.2444 -34.7919
rfingers 7.12502
rthumb 2.24132 -64.7598
lclavicle 1.04673e-015 8.03525e-015
lhumerus -1.59912 -16.4729 103.639
lradius 63.3378
lwrist 40.9963
lhand -3.59634 25.7719
lfingers 7.12502
lthumb 22.1415 54.524
rfemur -30.9701 -4.3359 29.0675
rtibia 53.5587
rfoot -16.6906 -14.4626
rtoes -12.8571
lfemur -51.9255 4.03866 -9.68482
ltibia 23.9974
lfoot -1.52275 10.3537
ltoes -9.85212
168
root 18.6082 16.9457 5.27641 -243.968 -83.0656 260.672
lowerback 19.5116 -1.49655 4.52711
upperback 9.38165 -1.84527 4.27246
thorax -0.742143 -1.20783 2.3405
lowerneck -16.5378 1.01471 -3.04863
upperneck -2.06435 1.52168 4.01246
head 2.15288 0.80614 1.95685
rclavicle 4.48756e-014 1.61016e-014
rhumerus 2.3541 24.7373 -90.4163
rradius 68.8601
rwrist 13.1807
rhand -23.8007 -34.9448
rfingers 7.12502
rthumb 2.66984 -64.9078
lclavicle 4.48756e-014 1.61016e-014
lhumerus -2.74314 -16.7617 103.606
lradius 63.9132
lwrist 41.2734
lhand -3.69231 25.4913
lfingers 7.12502
lthumb 22.0494 54.2544
rfemur -30.484 -4.45925 28.9953
rtibia 54.4299
rfoot -15.9529 -14.4555
rtoes -13.462
lfemur -51.6769 3.88197 -9.74405
ltibia 24.3491
lfoot -1.29636 10.0831
ltoes -9.32044
